name ./resultDataOpenSim/trcMotMarkerGrf/sub06/grf-13-07.mot
datacolumns 19
datarows 20
range 1.55600000 1.63200000
endheader

                time	     ground_force_vx	     ground_force_vy	     ground_force_vz	     ground_force_px	     ground_force_py	     ground_force_pz	   l_ground_force_vx	   l_ground_force_vy	   l_ground_force_vz	   l_ground_force_px	   l_ground_force_py	   l_ground_force_pz	     ground_torque_x	     ground_torque_y	     ground_torque_z	   l_ground_torque_x	   l_ground_torque_y	   l_ground_torque_z	
          1.55600000	        110.77881876	        692.16492953	         -6.79997430	          0.91001508	          0.00000000	          0.01894753	          0.00000000	          0.00000000	          0.00000000	          0.00000000	          0.00000000	          0.00000000	          0.00000000	          4.12431511	          0.00000000	          0.00000000	          0.00000000	          0.00000000	
          1.56000000	        116.93675615	        697.71675073	         -8.76222506	          0.91029454	          0.00000000	          0.01885866	          0.00000000	          0.00000000	          0.00000000	          0.00000000	          0.00000000	          0.00000000	          0.00000000	          4.10970650	          0.00000000	          0.00000000	          0.00000000	          0.00000000	
          1.56400000	        123.00471633	        701.93271308	        -10.29643546	          0.91059107	          0.00000000	          0.01875086	          0.00000000	          0.00000000	          0.00000000	          0.00000000	          0.00000000	          0.00000000	          0.00000000	          4.07040108	          0.00000000	          0.00000000	          0.00000000	          0.00000000	
          1.56800000	        128.90204608	        704.85148572	        -11.25023920	          0.91090664	          0.00000000	          0.01862059	          0.00000000	          0.00000000	          0.00000000	          0.00000000	          0.00000000	          0.00000000	          0.00000000	          4.00398994	          0.00000000	          0.00000000	          0.00000000	          0.00000000	
          1.57200000	        134.57138299	        706.51573669	        -11.56720300	          0.91124725	          0.00000000	          0.01846683	          0.00000000	          0.00000000	          0.00000000	          0.00000000	          0.00000000	          0.00000000	          0.00000000	          3.91155826	          0.00000000	          0.00000000	          0.00000000	          0.00000000	
          1.57600000	        139.97325252	        706.95323872	        -11.29314065	          0.91160844	          0.00000000	          0.01828932	          0.00000000	          0.00000000	          0.00000000	          0.00000000	          0.00000000	          0.00000000	          0.00000000	          3.79846052	          0.00000000	          0.00000000	          0.00000000	          0.00000000	
          1.58000000	        145.08584776	        706.16308486	        -10.56423839	          0.91198004	          0.00000000	          0.01809094	          0.00000000	          0.00000000	          0.00000000	          0.00000000	          0.00000000	          0.00000000	          0.00000000	          3.67429713	          0.00000000	          0.00000000	          0.00000000	          0.00000000	
          1.58400000	        149.91517234	        704.11109516	         -9.57752239	          0.91235667	          0.00000000	          0.01787664	          0.00000000	          0.00000000	          0.00000000	          0.00000000	          0.00000000	          0.00000000	          0.00000000	          3.55176545	          0.00000000	          0.00000000	          0.00000000	          0.00000000	
          1.58800000	        154.51894962	        700.73724286	         -8.54668525	          0.91272286	          0.00000000	          0.01765261	          0.00000000	          0.00000000	          0.00000000	          0.00000000	          0.00000000	          0.00000000	          0.00000000	          3.44420568	          0.00000000	          0.00000000	          0.00000000	          0.00000000	
          1.59200000	        159.04763204	        695.96979603	         -7.64876843	          0.91306795	          0.00000000	          0.01742453	          0.00000000	          0.00000000	          0.00000000	          0.00000000	          0.00000000	          0.00000000	          0.00000000	          3.36205286	          0.00000000	          0.00000000	          0.00000000	          0.00000000	
          1.59600000	        163.75458263	        689.72988344	         -6.98343801	          0.91337702	          0.00000000	          0.01719752	          0.00000000	          0.00000000	          0.00000000	          0.00000000	          0.00000000	          0.00000000	          0.00000000	          3.30912677	          0.00000000	          0.00000000	          0.00000000	          0.00000000	
          1.60000000	        168.89999129	        681.90880390	         -6.57877082	          0.91358621	          0.00000000	          0.01697357	          0.00000000	          0.00000000	          0.00000000	          0.00000000	          0.00000000	          0.00000000	          0.00000000	          3.28053450	          0.00000000	          0.00000000	          0.00000000	          0.00000000	
          1.60400000	        174.59720846	        672.33202241	         -6.42145082	          0.91362475	          0.00000000	          0.01675810	          0.00000000	          0.00000000	          0.00000000	          0.00000000	          0.00000000	          0.00000000	          0.00000000	          3.26391412	          0.00000000	          0.00000000	          0.00000000	          0.00000000	
          1.60800000	        180.75187493	        660.76029075	         -6.44493816	          0.91352299	          0.00000000	          0.01655345	          0.00000000	          0.00000000	          0.00000000	          0.00000000	          0.00000000	          0.00000000	          0.00000000	          3.24388348	          0.00000000	          0.00000000	          0.00000000	          0.00000000	
          1.61200000	        187.12364408	        646.92158776	         -6.50481659	          0.91330059	          0.00000000	          0.01634916	          0.00000000	          0.00000000	          0.00000000	          0.00000000	          0.00000000	          0.00000000	          0.00000000	          3.20733637	          0.00000000	          0.00000000	          0.00000000	          0.00000000	
          1.61600000	        193.39062649	        630.50682972	         -6.41001537	          0.91293513	          0.00000000	          0.01614077	          0.00000000	          0.00000000	          0.00000000	          0.00000000	          0.00000000	          0.00000000	          0.00000000	          3.14701344	          0.00000000	          0.00000000	          0.00000000	          0.00000000	
          1.62000000	        199.14169361	        611.13404499	         -5.96700035	          0.91241340	          0.00000000	          0.01593016	          0.00000000	          0.00000000	          0.00000000	          0.00000000	          0.00000000	          0.00000000	          0.00000000	          3.06223894	          0.00000000	          0.00000000	          0.00000000	          0.00000000	
          1.62400000	        203.85013726	        588.35714756	         -5.00231825	          0.91175127	          0.00000000	          0.01571153	          0.00000000	          0.00000000	          0.00000000	          0.00000000	          0.00000000	          0.00000000	          0.00000000	          2.95712077	          0.00000000	          0.00000000	          0.00000000	          0.00000000	
          1.62800000	        206.90007090	        561.73718392	         -3.40669773	          0.91100731	          0.00000000	          0.01547353	          0.00000000	          0.00000000	          0.00000000	          0.00000000	          0.00000000	          0.00000000	          0.00000000	          2.83736474	          0.00000000	          0.00000000	          0.00000000	          0.00000000	
          1.63200000	        207.66735779	        530.90978489	         -1.18364313	          0.91025501	          0.00000000	          0.01521059	          0.00000000	          0.00000000	          0.00000000	          0.00000000	          0.00000000	          0.00000000	          0.00000000	          2.70727283	          0.00000000	          0.00000000	          0.00000000	          0.00000000	
